<?xml version="1.0" encoding="UTF-8"?>
<svg xmlns="http://www.w3.org/2000/svg" width="256" height="256" viewBox="0 0 64 64" fill="none">
  <title>Scraped Picture Favicon</title>
  <desc>An icon resembling a photo being scraped/extracted.</desc>

  <!-- Background -->
  <defs>
    <linearGradient id="bg" x1="0" y1="0" x2="64" y2="64" gradientUnits="userSpaceOnUse">
      <stop offset="0" stop-color="#111827"/>
      <stop offset="1" stop-color="#1F2937"/>
    </linearGradient>
    <clipPath id="clip">
      <rect x="6" y="6" width="52" height="52" rx="10"/>
    </clipPath>

    <!-- subtle diagonal hatch for the scraped area -->
    <pattern id="hatch" width="6" height="6" patternUnits="userSpaceOnUse" patternTransform="rotate(45)">
      <rect width="6" height="6" fill="none"/>
      <path d="M0 3 H6" stroke="#9CA3AF" stroke-width="1" opacity="0.5"/>
    </pattern>
  </defs>

  <rect x="2" y="2" width="60" height="60" rx="14" fill="url(#bg)"/>
  <g clip-path="url(#clip)">

    <!-- Photo frame -->
    <rect x="10" y="12" width="36" height="28" rx="3" fill="#F9FAFB" stroke="#D1D5DB" stroke-width="2"/>
    <!-- Photo contents: sun + mountains -->
    <circle cx="19.5" cy="20.5" r="3.5" fill="#FBBF24"/>
    <path d="M12 36 L20 26 L26 33 L30 29 L43 40 L12 40 Z" fill="#60A5FA"/>
    <path d="M20 26 L12 36" stroke="#2563EB" stroke-width="2" opacity="0.5"/>
    <path d="M26 33 L20 36" stroke="#2563EB" stroke-width="2" opacity="0.5"/>

    <!-- Scraped/extracted area on the right of photo -->
    <rect x="38" y="12" width="8" height="28" fill="url(#hatch)" opacity="0.9"/>
    <rect x="38" y="12" width="8" height="28" fill="#E5E7EB" opacity="0.18"/>
    <path d="M38 12 V40" stroke="#9CA3AF" stroke-width="1" opacity="0.7"/>

    <!-- Extraction lines leaving the photo -->
    <g stroke="#93C5FD" stroke-width="2" stroke-linecap="round">
      <path d="M44.5 18 H56"/>
      <path d="M44.5 24 H60"/>
      <path d="M44.5 30 H58"/>
      <path d="M44.5 36 H56"/>
    </g>

    <!-- Little brackets to imply selection/scrape -->
    <g stroke="#D1D5DB" stroke-width="2" stroke-linecap="round">
      <path d="M10 12 h6"/> <path d="M10 12 v6"/>
      <path d="M46 12 h-6"/> <path d="M46 12 v6"/>
      <path d="M10 40 h6"/> <path d="M10 40 v-6"/>
      <path d="M46 40 h-6"/> <path d="M46 40 v-6"/>
    </g>
  </g>

  <!-- Outer sparkle to indicate activity -->
  <g stroke="#FBBF24" stroke-width="2" stroke-linecap="round">
    <path d="M51 8 v4"/>
    <path d="M49 10 h4"/>
  </g>
</svg>
